# xmcd
#
# Track frame offsets:
#  150
#  14322
#  26800
#  39037
#  54150
#  64030
#  76075
#  84745
#  96187
#  107852
#  119715
#  131400
#  143787
#  153934
#
# Disc length: 2162 seconds
#
# Revision: 0
# Processed by: cddbd v1.5.1PL2 Copyright (c) Steve Scherf et al.
# Submitted via: Collectorz.com_Music_Collector 6.9
#
DISCID=ac08700e
DTITLE=The Sand Mountain Boys - The Sand Mountain Boys
DYEAR=1994
DGENRE=Bluegrass
TTITLE0=Randall Hylton - Everybody Needs Lovin'
TTITLE1=Bill Prickett - Slip of the Pen
TTITLE2=Randall Hylton - She's Mine
TTITLE3=Glenn Fletcher - Memories of the Old Mountain Home
TTITLE4=V. Claud/J. Organ - What's Good For You
TTITLE5=Kenny Townsel - You Were Sent Down From Heaven
TTITLE6=Randall Hylton - My Little Liza Lou (from Louisianne)
TTITLE7=Randall Hylton - On the Lonely Side of Goodbye
TTITLE8=Kenny Townsel - How Much Can You Lose
TTITLE9=Tilman Franks - Sprintime in Alaska
TTITLE10=Kenny Townsel - Twenty Long Years
TTITLE11=P. D. - Talkin' In Your Sleep
TTITLE12=Don Parmley - Mississippi River Man
TTITLE13=Bill Prickett - Somewhere On Down Life's Road
EXTD=
EXTT0=
EXTT1=
EXTT2=
EXTT3=
EXTT4=
EXTT5=
EXTT6=
EXTT7=
EXTT8=
EXTT9=
EXTT10=
EXTT11=
EXTT12=
EXTT13=
PLAYORDER=
